<?xml version="1.0" encoding="UTF-8"?>
<svg width="33px" height="30px" viewBox="0 0 33 30" version="1.1" xmlns="http://www.w3.org/2000/svg" xmlns:xlink="http://www.w3.org/1999/xlink">
    <title>ICON/钱包</title>
    <g id="效果图" stroke="none" stroke-width="1" fill="none" fill-rule="evenodd">
        <g id="首页" transform="translate(-1483, -135)" fill="#3B4656" fill-rule="nonzero">
            <g id="ICON/钱包" transform="translate(1483, 135)">
                <path d="M26.4,6.66666668 L31.35,6.66666668 C32.2612698,6.66666668 33,7.41285875 33,8.33333332 L33,28.3333333 C33,29.2538079 32.2612698,30 31.35,30 L1.65000001,30 C0.738730168,30 0,29.2538079 0,28.3333333 L0,1.66666668 C0,0.746192089 0.738730168,0 1.65000001,0 L26.4,0 L26.4,6.66666668 Z M3.30000002,10 L3.30000002,26.6666667 L29.7,26.6666667 L29.7,10 L3.30000002,10 Z M3.30000002,3.33333332 L3.30000002,6.66666668 L23.1,6.66666668 L23.1,3.33333332 L3.30000002,3.33333332 Z M21.45,16.6666667 L26.4,16.6666667 L26.4,20 L21.45,20 L21.45,16.6666667 Z" id="形状"></path>
            </g>
        </g>
    </g>
</svg>