<?xml version="1.0" encoding="UTF-8"?>
<svg width="18px" height="18px" viewBox="0 0 18 18" version="1.1" xmlns="http://www.w3.org/2000/svg" xmlns:xlink="http://www.w3.org/1999/xlink">
    <title>ICON/搜索</title>
    <g id="效果图" stroke="none" stroke-width="1" fill="none" fill-rule="evenodd">
        <g id="首页" transform="translate(-1332, -141)" fill="#999999" fill-rule="nonzero">
            <g id="搜索" transform="translate(489, 120)">
                <g id="ICON/搜索" transform="translate(843, 21)">
                    <path d="M7.9747957,0 C12.3768829,0 15.9495914,3.57270848 15.9495914,7.9747957 C15.9495914,12.3768829 12.3768829,15.9495914 7.9747957,15.9495914 C3.57270848,15.9495914 0,12.3768829 0,7.9747957 C0,3.57270848 3.57270848,0 7.9747957,0 L7.9747957,0 Z M7.9747957,14.1774146 C11.4012996,14.1774146 14.1774146,11.4012996 14.1774146,7.9747957 C14.1774146,4.54740572 11.4012996,1.77217684 7.9747957,1.77217684 C4.54740572,1.77217684 1.77217684,4.54740574 1.77217684,7.9747957 C1.77217684,11.4012996 4.54740574,14.1774146 7.9747957,14.1774146 Z M15.4932559,14.2403269 L18,16.7461849 L16.7461849,18 L14.2403269,15.4932559 L15.4932559,14.2403269 L15.4932559,14.2403269 Z" id="形状"></path>
                </g>
            </g>
        </g>
    </g>
</svg>