<?xml version="1.0" encoding="UTF-8"?>
<svg width="40px" height="40px" viewBox="0 0 40 40" version="1.1" xmlns="http://www.w3.org/2000/svg" xmlns:xlink="http://www.w3.org/1999/xlink">
    <title>个人中心</title>
    <g id="效果图" stroke="none" stroke-width="1" fill="none" fill-rule="evenodd">
        <g id="首页" transform="translate(-1620, -32)">
            <g id="个人中心" transform="translate(1620, 32)">
                <circle id="椭圆形" fill="#F6F6F6" cx="20" cy="20" r="20"></circle>
                <g id="ICON/个人中心" transform="translate(12, 9)" fill="#000000" fill-rule="nonzero">
                    <path d="M0,21 C0,16.581722 3.581722,13 8,13 C12.418278,13 16,16.581722 16,21 L14,21 C14,17.6862915 11.3137085,15 8,15 C4.6862915,15 2,17.6862915 2,21 L0,21 L0,21 Z M7.99999999,12 C4.685,12 1.99999999,9.315 1.99999999,6 C1.99999999,2.685 4.685,1.77635684e-15 7.99999999,1.77635684e-15 C11.315,1.77635684e-15 14,2.685 14,6 C14,9.315 11.315,12 7.99999999,12 Z M7.99999999,9.99999999 C10.21,9.99999999 12,8.20999999 12,5.99999999 C12,3.79000001 10.21,1.99999999 7.99999999,1.99999999 C5.78999998,1.99999999 3.99999999,3.78999998 3.99999999,5.99999999 C3.99999999,8.21000002 5.78999998,9.99999999 7.99999999,9.99999999 L7.99999999,9.99999999 Z" id="形状"></path>
                </g>
            </g>
        </g>
    </g>
</svg>