<?xml version="1.0" encoding="UTF-8"?>
<svg width="20px" height="20px" viewBox="0 0 20 20" version="1.1" xmlns="http://www.w3.org/2000/svg" xmlns:xlink="http://www.w3.org/1999/xlink">
    <title>ICON/购物车</title>
    <g id="批发商品" stroke="none" stroke-width="1" fill="none" fill-rule="evenodd">
        <g id="首页" transform="translate(-1808, -890)" fill="#000000">
            <g id="批发购物车" transform="translate(1791, 870)">
                <g id="ICON/购物车" transform="translate(17, 20)" fill-rule="nonzero">
                    <path d="M3.10348623,4.38450314 L0,1.33220356 L1.35412673,0 L4.45665598,3.05324107 L19.0429456,3.05324107 C19.3454031,3.05322042 19.6300681,3.19386973 19.8106667,3.43256221 C19.9912653,3.6712547 20.0465377,3.97989176 19.9597324,4.26493433 L17.6629804,11.7968272 C17.5416473,12.1952486 17.1689569,12.468136 16.7461935,12.4681071 L5.01744628,12.4681071 L5.01744628,14.3510804 L15.5442266,14.3510804 L15.5442266,16.2340536 L4.06046625,16.2340536 C3.53194077,16.2340536 3.10348623,15.8125357 3.10348623,15.292567 L3.10348623,4.38450314 Z M5.01744628,4.9362143 L5.01744628,10.5851339 L16.0342004,10.5851339 L17.7567644,4.9362143 L5.01744628,4.9362143 L5.01744628,4.9362143 Z M4.53895627,20 C3.74616806,20 3.10348623,19.3677231 3.10348623,18.5877701 C3.10348623,17.807817 3.74616806,17.1755402 4.53895627,17.1755402 C5.33174449,17.1755402 5.97442632,17.807817 5.97442632,18.5877701 C5.97442632,19.3677231 5.33174449,20 4.53895627,20 Z M16.0227166,20 C15.2299284,20 14.5872466,19.3677231 14.5872466,18.5877701 C14.5872466,17.807817 15.2299284,17.1755402 16.0227166,17.1755402 C16.8155048,17.1755402 17.4581867,17.807817 17.4581867,18.5877701 C17.4581867,19.3677231 16.8155048,20 16.0227166,20 Z" id="形状"></path>
                </g>
            </g>
        </g>
    </g>
</svg>